<svg xmlns="http://www.w3.org/2000/svg" viewBox="0 0 160 160" fill="none">
  <rect width="160" height="160" rx="8" fill="white"/>
  <rect x="16" y="16" width="48" height="48" rx="4" fill="#1F2328"/>
  <rect x="20" y="20" width="40" height="40" rx="2" fill="white"/>
  <rect x="24" y="24" width="32" height="32" rx="2" fill="#1F2328"/>
  <rect x="96" y="16" width="48" height="48" rx="4" fill="#1F2328"/>
  <rect x="100" y="20" width="40" height="40" rx="2" fill="white"/>
  <rect x="104" y="24" width="32" height="32" rx="2" fill="#1F2328"/>
  <rect x="16" y="96" width="48" height="48" rx="4" fill="#1F2328"/>
  <rect x="20" y="100" width="40" height="40" rx="2" fill="white"/>
  <rect x="24" y="104" width="32" height="32" rx="2" fill="#1F2328"/>
  <rect x="72" y="16" width="8" height="8" fill="#1F2328"/>
  <rect x="72" y="32" width="8" height="8" fill="#1F2328"/>
  <rect x="72" y="48" width="8" height="8" fill="#1F2328"/>
  <rect x="72" y="72" width="8" height="8" fill="#1F2328"/>
  <rect x="72" y="96" width="8" height="8" fill="#1F2328"/>
  <rect x="72" y="112" width="8" height="8" fill="#1F2328"/>
  <rect x="72" y="136" width="8" height="8" fill="#1F2328"/>
  <rect x="88" y="72" width="8" height="8" fill="#1F2328"/>
  <rect x="96" y="72" width="8" height="8" fill="#1F2328"/>
  <rect x="112" y="72" width="8" height="8" fill="#1F2328"/>
  <rect x="128" y="72" width="8" height="8" fill="#1F2328"/>
  <rect x="88" y="96" width="8" height="8" fill="#1F2328"/>
  <rect x="96" y="112" width="8" height="8" fill="#1F2328"/>
  <rect x="112" y="96" width="8" height="8" fill="#1F2328"/>
  <rect x="128" y="112" width="8" height="8" fill="#1F2328"/>
  <rect x="96" y="136" width="8" height="8" fill="#1F2328"/>
  <rect x="112" y="136" width="8" height="8" fill="#1F2328"/>
  <rect x="136" y="136" width="8" height="8" fill="#1F2328"/>
  <text x="80" y="152" text-anchor="middle" font-family="system-ui, sans-serif" font-size="8" fill="#8C959F">t.me/AseguraBot</text>
</svg>